<?xml version="1.0" encoding="UTF-8"?><svg xmlns="http://www.w3.org/2000/svg" viewBox="0 0 612.37 612"><defs><style>.d{fill:#fff;}</style></defs><g id="a"/><g id="b"><g id="c"><g><path class="d" d="M87.43,551.89h87.43v60.11H0v-174.86H87.43v114.75Z"/><path class="d" d="M393.43,174.86H218.57V0h71.04l.08,60.11c0,8.99,7.4,16.39,16.39,16.39s16.39-7.4,16.39-16.39L322.39,0h71.04V174.86Z"/><path class="d" d="M393.43,289.61v32.79h-60.11c-8.99,0-16.39,7.4-16.39,16.39s7.4,16.39,16.39,16.39h60.11v38.25H218.57V218.57h174.86v38.25h-60.11c-8.99,0-16.39,7.4-16.39,16.39s7.4,16.39,16.39,16.39h60.11Z"/><path class="d" d="M71.11,0h32.79V60.11c0,8.99,7.4,16.39,16.39,16.39s16.39-7.4,16.39-16.39V0h38.25V174.86H.08V0H38.33V60.11c0,8.99,7.4,16.39,16.39,16.39s16.39-7.4,16.39-16.39V0Z"/><path class="d" d="M612,0c-8.4,0-73.19,0-81.89,0-.07,0-7.03,0-7.09,0,1.91,2.02,3.83,4.05,5.74,6.07,2.61,2.76,5.22,5.52,7.83,8.29,6.18,6.54,5.88,17-.65,23.17-6.54,6.18-17,5.88-23.17-.65-7.04-7.44-8.83-11.63-23.9-25.29-4.11-3.73-6.23-5.14-7.93-6.13C472.77,.71,464.47-.05,459.08,0c-7.31,0-14.62,0-21.93,0l.08,174.85c8.4,0,73.19,0,81.89,0,.07,0,7.03,0,7.09,0-1.91-2.02-3.83-4.05-5.74-6.07-2.61-2.76-5.22-5.52-7.83-8.29-6.18-6.54-5.88-17,.65-23.17,6.54-6.18,17-5.88,23.17,.65,7.04,7.44,8.83,11.63,23.9,25.29,4.11,3.73,6.23,5.14,7.93,6.13,8.17,4.76,16.46,5.51,21.86,5.46,7.31,0,14.62,0,21.93,0L612,0Z"/><path class="d" d="M145.47,243.4c-.52-.48-1.78-1.63-3.4-2.97-10.42-8.61-31.6-21.59-71.04-21.86H0v174.86H71.04c39.42-.26,60.6-13.24,71.04-21.86,1.62-1.34,2.88-2.49,3.4-2.96,9.09-8.29,29.39-29.92,29.39-62.61s-20.29-54.31-29.38-62.6Zm-45.02,77.81H59.2v-30.41h41.25c8.4,0,15.21,6.81,15.21,15.21s-6.81,15.21-15.21,15.21Z"/><path class="d" d="M612,554.05c0-18.61-10.43-33.13-27-42.43,7.67-7.67,11.66-17.8,11.66-28.75,0-25.74-22.39-45.73-59.51-45.73h-100.01v174.86h92.89c39.68-1.43,69.03-17.56,76.42-33.35,5.76-12.31,5.54-24.61,5.54-24.61Zm-115.66-85.61h34.72c7.07,0,12.8,5.73,12.8,12.8s-5.73,12.8-12.8,12.8h-34.72v-25.6Zm41.25,102.71h-41.25v-30.41h41.25c8.4,0,15.21,6.81,15.21,15.21s-6.81,15.21-15.21,15.21Z"/><path class="d" d="M596.32,306.67c.76-.82,1.39-1.49,1.92-2.06,1.61-1.71,2.78-2.94,2.92-3.09,1.69-1.78,4.19-5.56,6.16-9.74,3.75-7.98,4.45-15.1,4.76-18.57,.23-2.54,.54-6.25,0-10.93-1.34-11.68-6.88-20.02-9.33-23.32-1.78-2.39-7.6-9.77-17.99-14.93-10.02-4.98-23.21-5.13-49.18-5.46-6.37-.08-10.93,0-10.93,0h-87.51v174.86h71.04v-21.86c0-8.99,7.4-16.39,16.39-16.39s16.39,7.4,16.39,16.39v21.86h71.04c-.3-14.46-.44-29.21-.39-44.24,.01-4.47,.06-8.9,.1-13.33-5.74,2.25-12.55,1.22-17.29-3.26-6.54-6.18-6.83-16.64-.65-23.17,.87-.92,1.44-1.56,2.56-2.76Zm-58.73-22.05h-41.25v-30.41h41.25c8.4,0,15.21,6.81,15.21,15.21s-6.81,15.21-15.21,15.21Z"/><path class="d" d="M306.13,437.14c-49.62-.03-90.25,42.67-87.48,92.89-.03,27.32-.05,54.64-.08,81.96h71.11v-27.32c0-8.99,7.4-16.39,16.39-16.39s16.39,7.4,16.39,16.39v27.32h70.96c.03-27.32,.05-54.64,.08-81.96,2.76-50.18-37.79-92.86-87.37-92.89Zm15.34,87.76h-30.41v-41.25c0-8.4,6.81-15.21,15.21-15.21s15.21,6.81,15.21,15.21v41.25Z"/></g></g></g></svg>